<svg width="347.001" height="49.002" viewBox="0 0 347.001 49.002" xmlns="http://www.w3.org/2000/svg"><g id="svgGroup" stroke-linecap="round" fill-rule="evenodd" font-size="9pt" stroke="#000" stroke-width="0.25mm" fill="#000" style="stroke:#000;stroke-width:0.25mm;fill:#000"><path d="M 216.001 0.001 L 216.001 48.901 L 208.001 48.901 L 208.001 12.101 L 211.001 7.101 L 206.501 7.101 L 194.201 35.001 L 188.401 35.001 L 176.501 7.101 L 172.001 7.101 L 175.001 12.101 L 175.001 48.901 L 167.001 48.901 L 167.001 0.001 L 181.301 0.001 L 191.201 23.401 L 192.201 23.401 L 202.101 0.001 L 216.001 0.001 Z M 152.001 42.001 L 152.001 49.001 L 117.001 49.001 L 117.001 14.001 L 124.001 7.001 L 117.001 7.001 L 117.001 0.001 L 152.001 0.001 L 152.001 7.001 L 125.001 7.001 L 125.001 27.001 L 131.001 21.001 L 152.001 21.001 L 152.001 28.001 L 125.001 28.001 L 125.001 42.001 L 152.001 42.001 Z M 99.001 0.001 L 99.001 49.001 L 91.001 49.001 L 91.001 28.001 L 65.001 28.001 L 65.001 49.001 L 57.001 49.001 L 57.001 0.001 L 65.001 0.001 L 65.001 27.001 L 71.001 21.001 L 91.001 21.001 L 91.001 0.001 L 99.001 0.001 Z M 42.001 35.001 L 42.001 42.001 Q 42.001 44.901 39.951 46.951 Q 37.901 49.001 35.001 49.001 L 7.001 49.001 Q 4.101 49.001 2.051 46.951 Q 0.001 44.901 0.001 42.001 L 0.001 7.001 Q 0.001 4.101 2.051 2.051 Q 4.101 0.001 7.001 0.001 L 35.001 0.001 Q 37.901 0.001 39.951 2.051 Q 42.001 4.101 42.001 7.001 L 42.001 14.001 L 34.001 14.001 L 34.001 7.001 L 8.001 7.001 L 8.001 42.001 L 34.001 42.001 L 34.001 35.001 L 42.001 35.001 Z M 276.001 0.001 L 276.001 49.001 L 268.001 49.001 L 268.001 35.001 L 242.001 35.001 L 242.001 49.001 L 234.001 49.001 L 234.001 7.001 Q 234.001 4.101 236.051 2.051 Q 238.101 0.001 241.001 0.001 L 276.001 0.001 Z M 329.001 35.001 L 329.001 49.001 L 294.001 49.001 L 294.001 0.001 L 302.001 0.001 L 302.001 42.001 L 321.001 42.001 L 321.001 35.001 L 329.001 35.001 Z M 347.001 0.001 L 347.001 49.001 L 339.001 49.001 L 339.001 0.001 L 347.001 0.001 Z M 248.001 28.001 L 268.001 28.001 L 268.001 7.001 L 242.001 7.001 L 242.001 34.001 L 248.001 28.001 Z" vector-effect="non-scaling-stroke"/></g></svg>